<svg width="266" height="308" viewBox="0 0 266 308" xmlns="http://www.w3.org/2000/svg" style="display:block" preserveAspectRatio="xMidYMid meet"><svg x="60" y="33" width="146" height="242" xmlns="http://www.w3.org/2000/svg" style="display:block" preserveAspectRatio="none"><svg version="1.1" xmlns="http://www.w3.org/2000/svg" style="display: block;" width="146" height="242" viewBox="16.68 19.29 1172.97 1944.24" preserveAspectRatio="none"><g id="svg-group-b1f7a2fe-a54c-475f-87e4-0abf2cc18a6e">
<path transform="translate(0,0)" fill="rgba(0, 0, 0, 1)" d="M 606.063 26.8856 C 630.306 42.2934 657.028 71.288 678.146 92.2025 L 776.041 189.969 C 791.596 205.519 808.248 219.382 824.302 235.395 L 983.766 394.338 C 1019.86 430.297 1054.97 466.062 1092.9 500.098 C 1122.39 529.111 1152.05 558.421 1180.69 588.236 C 1184.53 592.236 1185.32 604.075 1181.01 605.918 C 1158.67 615.452 1116.05 607.934 1093.94 608.228 L 697.075 609.605 C 694.648 609.626 684.406 610.14 683.072 611.51 C 684.367 618.003 689.118 623.269 693.566 627.938 C 700.76 635.489 709.082 641.602 716.909 648.438 C 724.412 654.99 731.465 662.17 738.424 669.296 C 750.876 682.047 762.853 695.266 775.394 707.93 C 830.039 763.115 886.034 817.154 941.118 871.928 C 982.327 912.904 1022.86 954.697 1064.41 995.296 C 1075.46 1006.08 1087.54 1015.72 1098.85 1026.22 C 1109.68 1036.28 1180.62 1103.31 1183.39 1112.52 C 1184.07 1114.77 1183.07 1117.35 1181.95 1119.3 C 1179.79 1123.04 1175.63 1126.39 1171.4 1127.42 C 1164.52 1129.09 1154.45 1127.84 1147.17 1127.83 L 1090.13 1127.8 L 800.626 1127.77 L 734.722 1127.72 C 721.398 1127.7 705.833 1126.95 692.585 1128.98 C 689.506 1129.45 687.63 1129.08 684.979 1129.56 C 685.558 1134.05 717.93 1164.14 723.882 1170.13 L 827.796 1274.33 L 1117.02 1562.96 C 1135.4 1581.07 1155.13 1598.18 1173.81 1616.34 C 1185.95 1628.13 1189.65 1644.82 1167.66 1646.9 C 1155.3 1648.07 1139.69 1647.04 1127.05 1646.94 L 1048.47 1646.64 L 789.642 1646.8 C 773.81 1646.67 758.394 1644.96 742.636 1644.16 C 721.887 1643.11 700.345 1643.09 679.574 1643.66 C 672.876 1643.85 664.63 1644.37 660.982 1651.04 C 657.636 1657.16 659.759 1847.48 659.81 1871.1 C 659.846 1887.5 662.352 1922.9 657.572 1937.19 C 655.729 1942.7 649.623 1948.12 645.662 1952.31 C 628.3 1955.94 612.718 1955.46 595.025 1955.71 C 584.458 1955.62 574.822 1954.59 564.374 1953.22 C 537.956 1931.37 547.607 1927.71 544.903 1902.02 C 541.896 1873.46 549.782 1659.13 543.95 1647.77 C 541.199 1645.83 538.785 1644.9 535.349 1645.4 C 512.825 1648.73 491.18 1644.03 469.199 1643.95 C 374.36 1643.62 279.509 1643.77 184.666 1643.64 L 97.051 1643.58 C 73.2296 1643.68 49.749 1644.3 25.9638 1643.02 C 23.0906 1640.87 19.6526 1637.27 17.0149 1634.66 C 20.4586 1629.92 23.142 1624.91 27.0097 1620.3 C 38.8379 1606.19 53.1005 1593.99 65.8926 1580.83 C 78.5066 1567.86 92.809 1557.53 105.559 1544.87 L 307.326 1346.6 C 368.46 1287.44 427.314 1225.38 488.544 1166.27 C 497.416 1157.7 507.328 1150.09 516.867 1142.27 C 518.127 1138.72 519.328 1134.33 520.438 1130.66 C 500.569 1126.41 463.434 1127.69 441.833 1127.62 L 320.124 1127.29 L 137.366 1127.16 C 111.356 1126.96 85.3455 1127.09 59.3394 1127.54 C 48.3132 1127.65 36.969 1127.19 26.0061 1127.78 C 22.7998 1120.94 22.0567 1119.71 16.8032 1114.21 C 37.4419 1088.15 71.9265 1061.76 95.8039 1038.34 C 176.444 959.253 254.96 877.432 335.94 798.767 L 469.618 668.68 C 482.179 656.595 518.871 629.837 522.338 614.609 C 517.031 610.412 460.681 610.867 449.691 610.776 C 434.088 610.647 414.258 608.006 399.612 607.963 C 324.297 607.741 248.902 607.846 173.601 607.793 L 82.6781 607.89 C 70.5239 607.929 25.2893 610.583 18.369 602.075 C 17.7276 599.945 16.6781 596 17.8997 594.144 C 28.0369 578.741 48.6425 564.946 61.304 552.678 C 74.3684 540.019 85.9115 528.352 98.1023 516.199 L 379.453 239.488 C 389.68 229.562 400.55 221.153 410.68 211.3 L 548.083 77.9545 C 566.804 60.0971 582.96 38.8904 606.063 26.8856 z"/>
</g></svg></svg></svg>