<svg width="816" height="381" viewBox="0 0 816 381" xmlns="http://www.w3.org/2000/svg" style="display:block" preserveAspectRatio="xMidYMid meet"><svg x="338" y="114" width="364" height="155" xmlns="http://www.w3.org/2000/svg" style="display:block" preserveAspectRatio="none"><svg version="1.1" xmlns="http://www.w3.org/2000/svg" style="display: block;" width="364" height="155" viewBox="-1.07 0.00 2050.14 873.00" preserveAspectRatio="none"><g id="svg-group-864602a6-cb92-418e-8b7e-68513bd935eb">
<path transform="translate(0,0)" fill="rgba(0, 0, 0, 1)" d="M 496.739 90.8988 C 584.296 83.5758 661.195 148.657 668.448 236.22 C 675.702 323.783 610.559 400.63 522.99 407.813 C 435.52 414.989 358.779 349.936 351.534 262.471 C 344.289 175.007 409.28 98.2135 496.739 90.8988 z M 517.459 353.055 C 574.289 348.888 617.07 299.583 613.183 242.733 C 609.295 185.883 560.201 142.86 503.333 146.468 C 446.068 150.101 402.679 199.613 406.593 256.859 C 410.508 314.106 460.232 357.251 517.459 353.055 z"/>
<path transform="translate(0,0)" fill="rgba(0, 0, 0, 1)" d="M 868.182 563.48 C 899.393 563.446 932.553 561.945 963.363 564.553 C 1057.76 572.544 1117.75 653.712 1097.34 746.603 C 1087.74 790.309 1070.91 811.195 1037.88 838.449 C 1024.57 847.344 995.398 861.583 977.754 863.197 C 938 866.835 890.407 868.224 850.229 865.92 C 846.587 865.712 838.27 859.137 835.193 856.824 C 833.527 838.655 834.213 816.053 834.221 797.471 L 834.22 700.789 L 834.005 629.721 C 833.773 604.398 831.312 601.382 835.396 574.763 C 835.961 574.136 836.534 573.517 837.116 572.906 C 846.45 563.137 855.455 563.83 868.182 563.48 z M 889.609 811.601 C 901.892 812.156 913.571 810.434 924.694 810.714 C 959.151 811.58 986.221 810.428 1013.79 786.454 C 1035.45 764.921 1043.38 750.003 1044.2 718.175 C 1044.93 689.79 1037.16 663.5 1016.59 642.982 C 997.412 623.849 974.125 617.85 947.807 617.706 C 936.627 617.645 897.081 619.093 888.974 617.274 C 889.196 632.474 892.041 648.978 891.974 662.955 C 891.745 711.205 892.754 763.686 889.609 811.601 z"/>
<path transform="translate(0,0)" fill="rgba(0, 0, 0, 1)" d="M 800.076 96.2582 C 820.114 95.3671 843.614 95.5643 863.749 95.9632 C 907.961 96.8391 964.175 87.9926 996.771 124.953 C 1031.23 164.027 1022.32 241.037 977.424 269.384 C 971.479 273.167 960.566 277.496 956.013 281.584 C 959.167 299.617 1019.32 360.312 1019.02 383.689 C 1018.74 406.4 983.92 410.878 966.503 392.931 C 960.748 386.763 951.322 372.335 946.054 364.821 C 937.513 352.775 928.783 340.864 919.866 329.093 C 914.404 321.827 908.964 314.622 903.1 307.674 C 897.971 301.597 892.421 296.48 887.995 289.836 C 836.546 289.105 837.434 282.81 839.045 335.344 C 839.523 350.955 841.635 379.066 835.303 392.443 C 826.674 410.674 800.47 401.88 787.417 394.497 C 784.928 378.391 787.121 362.744 785.982 346.909 C 783.071 306.417 784.069 266.147 784.034 225.53 L 783.713 154.518 C 783.641 141.27 783.203 127.686 784.011 114.489 C 784.64 104.22 790.311 98.2459 800.076 96.2582 z M 839.316 239.114 C 854.416 238.143 869.541 237.614 884.672 237.53 C 908.368 237.462 928.328 242.449 947.507 226.209 C 958.863 214.579 962.233 206.063 961.734 190.517 C 960.452 150.609 938.479 149.134 907.01 148.768 C 887.558 148.542 857.273 150.723 839.589 148.362 C 839.054 164.453 840.218 181.267 840.337 197.499 C 840.433 210.666 838.907 226.428 839.316 239.114 z"/>
<path transform="translate(0,0)" fill="rgba(0, 0, 0, 1)" d="M 1579.6 93.3556 C 1598.49 92.7454 1616.78 90.7954 1626.22 110.153 C 1635.91 130.023 1644.24 149.957 1652.97 170.242 L 1701.78 286.501 C 1713.49 315.064 1732.7 353.433 1740.4 383.134 C 1739.43 386.511 1737.54 390.908 1736.21 394.262 C 1727.92 400.123 1718.95 405.031 1708.39 404.335 C 1675.09 402.141 1676.58 353.822 1657.91 333.186 L 1657.55 332.797 C 1646.24 335.147 1621.31 334.446 1608.75 334.468 C 1581.08 334.75 1553.4 334.807 1525.73 334.638 C 1517.32 352.881 1507.73 382.424 1495.14 396.649 C 1488.23 404.452 1471.78 402.514 1461.49 402.134 C 1447.91 392.575 1444.06 390.701 1451.01 372.062 C 1458.04 353.218 1466.2 334.631 1473.87 316.025 L 1518.52 208.193 C 1527.61 186.473 1536.09 164.373 1545.5 142.834 C 1551.75 128.524 1562.38 97.4729 1579.6 93.3556 z M 1547.64 279.741 C 1562.37 280.457 1577.44 280.173 1592.21 280.075 C 1599.48 280.182 1631.9 281.551 1636.14 278.798 C 1636.54 267.315 1608.31 208.92 1603.36 193.312 C 1602.14 189.476 1595.33 176.725 1593.35 170.607 C 1582.26 191.556 1572.68 213.269 1564.69 235.58 C 1560.75 246.272 1552.28 270.773 1547.64 279.741 z"/>
<path transform="translate(0,0)" fill="rgba(0, 0, 0, 1)" d="M 1525.48 563.474 C 1529.24 563.236 1533.02 563.101 1536.79 563.069 C 1554.94 563.059 1562.14 571.552 1568.26 587.607 C 1592.81 652.084 1622.24 714.556 1649.41 777.937 C 1656.72 794.989 1662.13 813.085 1670.63 829.901 C 1673.18 834.946 1673.17 845.455 1673.06 850.991 C 1664.98 863.573 1657.84 867.171 1642.83 867.26 C 1609.77 867.966 1612.39 820.216 1596.23 802.904 C 1591.71 798.053 1543.05 799.442 1534.5 799.424 C 1511.78 799.256 1486.8 798.699 1464.26 799.559 C 1451.42 816.629 1449.15 843.789 1432.04 863.665 C 1414.32 871.686 1398.83 869.662 1386.15 854.217 C 1385.92 847.221 1386.48 839.977 1388.7 833.302 C 1392.88 820.745 1398.78 808.358 1403.85 796.125 C 1415.98 766.873 1428.66 737.92 1441.12 708.822 C 1452.37 682.584 1487.86 588.516 1502.08 572.994 C 1508.9 565.545 1515.86 563.931 1525.48 563.474 z M 1484.69 746.921 C 1500.14 747.466 1512.75 746.594 1528.06 746.191 C 1541.96 746.415 1563.18 748.711 1575.43 747.165 C 1568.88 727.439 1559.97 708.474 1551.32 689.581 C 1546.86 679.834 1538.45 650.014 1530.92 644.444 L 1528.67 649.383 C 1527 653.055 1520.44 659.851 1516.97 668.029 C 1507.04 691.462 1492.18 723.023 1484.69 746.921 z"/>
<path transform="translate(0,0)" fill="rgba(0, 0, 0, 1)" d="M 522.904 563.491 C 578.951 562.026 637.641 563.944 693.801 564.058 C 715.898 564.103 724.521 589.905 712.214 605.606 C 709.667 608.855 704.185 613.176 699.862 614.5 C 652.767 620.432 601.132 612.638 554.044 617.263 L 554.155 685.048 C 574.378 684.787 594.602 684.639 614.827 684.604 C 630.024 684.566 653.378 682.501 666.37 690.666 C 684.887 702.304 679.766 718.787 669.417 734.023 C 639.062 741.264 587.692 735.052 554.177 738.214 C 553.786 747.152 554.214 759.327 554.29 768.5 C 554.566 778.648 552.89 802.803 555.736 810.964 C 563.62 818.893 681.996 809.776 707.044 815.669 C 722.007 827.37 721.358 851.866 707.594 862.035 C 697.858 869.229 661.864 866.953 649.179 866.915 C 609.064 866.797 569.442 866.835 529.373 866.798 C 513.793 866.784 509.543 863.27 499.534 852.514 C 498.443 836.312 499.276 809.411 499.24 792.561 L 498.997 673.265 C 498.98 659.05 499.204 642.283 498.757 628.259 C 498.061 606.413 495.023 598.183 499.502 575.981 C 507.292 566.086 510.531 564.417 522.904 563.491 z"/>
<path transform="translate(0,0)" fill="rgba(0, 0, 0, 1)" d="M 1160.08 96.298 C 1183.52 95.1059 1211.64 96.6326 1235.79 96.2653 C 1266.57 96.078 1297.51 96.3593 1328.27 96.2744 C 1363.68 96.1767 1365.34 129.072 1342.34 148.622 C 1303.52 150.915 1261.99 147.527 1222.92 148.853 C 1213.67 149.167 1205.29 148.607 1196 149.935 C 1195.98 171.262 1195.23 193.128 1196.68 214.384 C 1196.77 215.826 1196.99 219.811 1198.21 220.67 C 1208.91 228.187 1301.59 216.554 1312.75 226.628 C 1318.15 231.499 1320.71 238.989 1320.96 246.111 C 1321.36 257.075 1316.05 264.397 1308.97 271.999 C 1292.49 274.585 1203.36 270.204 1197.72 275.313 C 1196.45 280.709 1196.91 289.84 1196.98 295.689 C 1196.94 304.766 1195.53 343.037 1198.89 348.013 C 1207.5 350.702 1226.26 349.895 1235.9 349.896 L 1300.23 349.854 C 1312.05 349.845 1329.48 349.372 1340.75 350.803 C 1351.52 358.248 1353.66 363.798 1357.33 375.907 C 1355.75 380.093 1354.61 386.244 1353.62 390.742 C 1350.04 394.68 1346.12 398.226 1342.23 401.861 C 1330.38 402.9 1314.51 402.508 1302.43 402.481 L 1239.66 402.326 C 1219.47 402.321 1199.22 402.469 1179.09 402.488 C 1167.33 402.499 1157.94 403.192 1148.17 395.965 C 1144.78 393.464 1141.96 388.02 1141.69 384.044 C 1140.89 372.327 1141.3 359.655 1141.31 347.964 L 1141.37 272.456 L 1141.35 175.611 C 1141.24 155.778 1140.9 135.943 1141.37 116.118 C 1141.68 102.728 1147.14 97.786 1160.08 96.298 z"/>
<path transform="translate(0,0)" fill="rgba(0, 0, 0, 1)" d="M 1236.01 561.23 C 1248.33 559.979 1265.88 562.032 1271.12 575.715 C 1272.21 578.541 1272.96 586.808 1272.98 590.004 C 1273.15 626.739 1272.84 663.493 1272.96 700.231 C 1272.89 744.185 1273.33 788.238 1272.45 832.162 C 1272.34 837.15 1271.34 851.115 1269.18 855.278 C 1265.95 861.494 1257.97 865.409 1251.49 867.49 C 1235.1 870.205 1227.72 866.874 1217.49 854.52 C 1216.72 839.742 1217.16 822.115 1217.16 806.996 L 1217.17 716.215 C 1217.06 695.374 1211.31 588.409 1216.61 575.988 C 1220.11 567.776 1228.34 564.422 1236.01 561.23 z"/>
<path transform="translate(0,0)" fill="rgba(0, 0, 0, 1)" d="M 642.709 465.142 C 665.569 465.402 670.286 477.644 666.187 497.616 C 650.398 514.999 615.664 532.407 592.996 537.506 C 589.199 537.806 583.676 537.586 579.739 537.548 C 576.135 535.124 566.621 529.805 566.616 526.239 C 566.589 506.931 629.189 467.931 642.709 465.142 z"/>
<path transform="translate(0,0)" fill="rgba(0, 0, 0, 1)" d="M 0 113.927 L 0.276324 113.698 C 6.16836 108.759 9.66801 100.216 17.1458 97.5488 C 25.1808 94.6827 136.801 95.4689 151.84 96.7433 C 177.545 98.9215 200.191 108.413 216.982 128.446 C 230.973 145.139 236.966 166.172 234.956 187.788 C 232.44 214.831 218.691 228.709 201.115 247.532 C 219.474 257.704 237.274 268.028 242.576 290.046 C 253.807 336.299 231.428 387.659 182.413 399.014 C 154.717 405.429 122.036 402.188 93.3556 402.54 C 69.3455 402.835 42.5155 403.372 18.6662 402.212 C 10.5433 396.587 6.69283 394.203 0 386.99 L 0 113.927 z M 59.4282 350.039 C 73.4554 351.031 90.9849 349.119 105.395 347.977 C 127.657 346.212 158.612 355.712 176.258 340.839 C 191.36 326.141 192.63 300.626 177.869 285.019 C 165.061 271.476 148.032 272.407 130.953 272.474 C 107.012 272.144 83.1026 273.275 59.3488 272.963 L 59.4282 350.039 z M 58.6689 149.177 L 58.9581 219.508 C 73.0464 220.404 101.876 217.937 119.236 218.23 C 135.128 218.711 155.294 222.492 167.656 210.451 C 180.988 197.466 181.984 172.139 168.926 158.648 C 156.971 146.296 134.181 148.42 118.109 148.479 C 98.3052 149.226 78.4851 149.459 58.6689 149.177 z"/>
<path transform="translate(0,0)" fill="rgba(0, 0, 0, 1)" d="M 208.185 744.451 C 218.358 730.063 227.086 708.753 236.43 691.164 C 257.064 652.321 278.015 604.048 305.787 569.763 C 313.969 559.662 348.27 557.828 357.366 566.125 C 371.34 576.013 368.385 598.978 368.223 614.411 C 367.975 631.495 367.877 648.581 367.928 665.667 L 368.09 781.809 C 368.133 802.401 368.491 823.145 367.785 843.708 C 367.318 857.343 356.425 866.752 343.382 868.355 C 335.083 869.326 326.737 866.976 320.163 861.819 C 318.112 860.193 314.966 856.818 313.116 854.832 C 312.935 830.331 314.082 687.403 308.775 675.838 L 307.375 674.914 C 298.689 683.491 290.492 702.841 284.539 713.714 C 270.177 739.943 240.263 804.861 221.714 825.267 C 208.423 829.041 200.384 828.809 187.297 823.594 C 183.225 818.492 178.877 812.842 175.904 807.019 C 154.258 764.617 133.033 721.976 111.299 679.619 C 110.199 677.476 108.936 675.298 106.692 674.559 C 100.938 682.217 105.121 808.694 104.051 829.704 C 102.249 865.083 105.311 851.292 80.9894 873 L 72.9477 873 C 66.6255 865.698 57.1818 865.421 48.5384 854.809 C 47.7678 833.17 48.4035 810.166 48.4374 788.352 L 48.3135 677.271 L 48.1088 611.708 C 48.0823 602.816 47.5997 583.603 48.6564 575.476 C 57.2223 565.933 63.5168 563.724 76.3736 563.201 C 85.2346 562.84 102.451 562.066 108.705 569.499 C 134.385 600.022 151.744 642.005 170.988 676.919 C 183.963 700.458 192.014 723.248 208.185 744.451 z"/>
<path transform="translate(0,0)" fill="rgba(0, 0, 0, 1)" d="M 1940.77 769.84 C 1937.06 765.916 1926.45 754.119 1922.16 752.66 C 1861.04 731.847 1769.73 734.525 1772.05 645.74 C 1774.62 547.092 1914.22 534.721 1970.82 594.133 C 1983.49 607.408 1986.63 618.156 1991.49 635.506 C 1986.94 647.165 1985.97 652.63 1976.42 661.133 C 1947.9 663.765 1943.86 659.671 1932.67 634.012 C 1922.54 610.751 1891.85 609.225 1870.4 610.805 C 1850.89 612.002 1840.16 621.202 1828.1 635.37 C 1827.74 643.759 1827.65 649.189 1828.21 657.533 C 1847.29 678.62 1858.08 678.445 1884.59 685.76 C 1937.04 700.4 2002.78 711.505 1998.98 780.974 C 1997.41 809.47 1988.51 823.892 1969.91 844.978 C 1957.15 859.439 1920.28 865.541 1914.55 873 L 1849.17 873 C 1845.48 868.525 1839.04 867.116 1833.67 865.75 C 1803.67 858.126 1772.01 836.683 1764.73 804.864 C 1763.18 798.07 1763.94 789.664 1764.62 782.6 C 1764.65 782.221 1764.69 781.842 1764.73 781.464 C 1776.47 766.056 1786.71 764.685 1804.98 769.611 L 1805.31 769.931 C 1811.45 775.868 1814.69 784.402 1819.69 791.983 C 1836.57 817.548 1857.18 819.73 1886.61 820.193 C 1911.12 820.579 1938.29 812.174 1943.68 783.401 C 1944.01 781.627 1941.08 772.979 1940.77 769.84 z"/>
<path transform="translate(0,0)" fill="rgba(0, 0, 0, 1)" d="M 1840.54 390.615 C 1838.13 368.973 1839.01 351.053 1838.27 329.537 C 1837.11 295.863 1837.45 262.291 1837.54 228.615 L 1837.54 161.812 C 1837.5 135.174 1829.71 91.2956 1869.6 95.8831 C 1880.94 97.1884 1884.52 99.0626 1891.59 107.492 C 1893.11 114.591 1893.36 125.26 1893.46 132.703 C 1894.28 195.193 1894.94 257.767 1894.73 320.28 C 1894.7 328.522 1893.71 340.426 1896.38 348.068 C 1904.92 352.434 2005.23 347.91 2021.05 350.814 C 2039.89 354.275 2035.7 353.339 2048 368.943 L 2048 382.903 C 2042.15 391.668 2040.41 394.581 2032.51 401.686 C 2026.5 402.383 2019.54 402.589 2013.46 402.57 C 1963.27 402.41 1913.09 402.571 1862.91 402.45 C 1851.12 402.421 1848.1 398.746 1840.54 390.615 z"/>
<path transform="translate(0,0)" fill="rgba(0, 0, 0, 1)" d="M 1285.49 0 L 1298.64 0 C 1301.87 2.62186 1308.07 7.35883 1310.19 10.6374 C 1319.08 25.0954 1299.98 41.5309 1288.8 47.8799 C 1275.35 55.4306 1261.04 61.6103 1246.14 65.646 C 1236.01 68.39 1230.08 66.4051 1220.31 63.9042 C 1207.1 36.1893 1243.59 23.504 1262.06 11.9424 C 1269.05 7.57199 1278.49 5.92924 1285.22 0.234379 L 1285.49 0 z"/>
</g></svg></svg><svg x="114" y="70" width="146" height="242" xmlns="http://www.w3.org/2000/svg" style="display:block" preserveAspectRatio="none"><svg version="1.1" xmlns="http://www.w3.org/2000/svg" style="display: block;" width="146" height="242" viewBox="16.68 19.29 1172.97 1944.24" preserveAspectRatio="none"><g id="svg-group-b1f7a2fe-a54c-475f-87e4-0abf2cc18a6e">
<path transform="translate(0,0)" fill="rgba(0, 0, 0, 1)" d="M 606.063 26.8856 C 630.306 42.2934 657.028 71.288 678.146 92.2025 L 776.041 189.969 C 791.596 205.519 808.248 219.382 824.302 235.395 L 983.766 394.338 C 1019.86 430.297 1054.97 466.062 1092.9 500.098 C 1122.39 529.111 1152.05 558.421 1180.69 588.236 C 1184.53 592.236 1185.32 604.075 1181.01 605.918 C 1158.67 615.452 1116.05 607.934 1093.94 608.228 L 697.075 609.605 C 694.648 609.626 684.406 610.14 683.072 611.51 C 684.367 618.003 689.118 623.269 693.566 627.938 C 700.76 635.489 709.082 641.602 716.909 648.438 C 724.412 654.99 731.465 662.17 738.424 669.296 C 750.876 682.047 762.853 695.266 775.394 707.93 C 830.039 763.115 886.034 817.154 941.118 871.928 C 982.327 912.904 1022.86 954.697 1064.41 995.296 C 1075.46 1006.08 1087.54 1015.72 1098.85 1026.22 C 1109.68 1036.28 1180.62 1103.31 1183.39 1112.52 C 1184.07 1114.77 1183.07 1117.35 1181.95 1119.3 C 1179.79 1123.04 1175.63 1126.39 1171.4 1127.42 C 1164.52 1129.09 1154.45 1127.84 1147.17 1127.83 L 1090.13 1127.8 L 800.626 1127.77 L 734.722 1127.72 C 721.398 1127.7 705.833 1126.95 692.585 1128.98 C 689.506 1129.45 687.63 1129.08 684.979 1129.56 C 685.558 1134.05 717.93 1164.14 723.882 1170.13 L 827.796 1274.33 L 1117.02 1562.96 C 1135.4 1581.07 1155.13 1598.18 1173.81 1616.34 C 1185.95 1628.13 1189.65 1644.82 1167.66 1646.9 C 1155.3 1648.07 1139.69 1647.04 1127.05 1646.94 L 1048.47 1646.64 L 789.642 1646.8 C 773.81 1646.67 758.394 1644.96 742.636 1644.16 C 721.887 1643.11 700.345 1643.09 679.574 1643.66 C 672.876 1643.85 664.63 1644.37 660.982 1651.04 C 657.636 1657.16 659.759 1847.48 659.81 1871.1 C 659.846 1887.5 662.352 1922.9 657.572 1937.19 C 655.729 1942.7 649.623 1948.12 645.662 1952.31 C 628.3 1955.94 612.718 1955.46 595.025 1955.71 C 584.458 1955.62 574.822 1954.59 564.374 1953.22 C 537.956 1931.37 547.607 1927.71 544.903 1902.02 C 541.896 1873.46 549.782 1659.13 543.95 1647.77 C 541.199 1645.83 538.785 1644.9 535.349 1645.4 C 512.825 1648.73 491.18 1644.03 469.199 1643.95 C 374.36 1643.62 279.509 1643.77 184.666 1643.64 L 97.051 1643.58 C 73.2296 1643.68 49.749 1644.3 25.9638 1643.02 C 23.0906 1640.87 19.6526 1637.27 17.0149 1634.66 C 20.4586 1629.92 23.142 1624.91 27.0097 1620.3 C 38.8379 1606.19 53.1005 1593.99 65.8926 1580.83 C 78.5066 1567.86 92.809 1557.53 105.559 1544.87 L 307.326 1346.6 C 368.46 1287.44 427.314 1225.38 488.544 1166.27 C 497.416 1157.7 507.328 1150.09 516.867 1142.27 C 518.127 1138.72 519.328 1134.33 520.438 1130.66 C 500.569 1126.41 463.434 1127.69 441.833 1127.62 L 320.124 1127.29 L 137.366 1127.16 C 111.356 1126.96 85.3455 1127.09 59.3394 1127.54 C 48.3132 1127.65 36.969 1127.19 26.0061 1127.78 C 22.7998 1120.94 22.0567 1119.71 16.8032 1114.21 C 37.4419 1088.15 71.9265 1061.76 95.8039 1038.34 C 176.444 959.253 254.96 877.432 335.94 798.767 L 469.618 668.68 C 482.179 656.595 518.871 629.837 522.338 614.609 C 517.031 610.412 460.681 610.867 449.691 610.776 C 434.088 610.647 414.258 608.006 399.612 607.963 C 324.297 607.741 248.902 607.846 173.601 607.793 L 82.6781 607.89 C 70.5239 607.929 25.2893 610.583 18.369 602.075 C 17.7276 599.945 16.6781 596 17.8997 594.144 C 28.0369 578.741 48.6425 564.946 61.304 552.678 C 74.3684 540.019 85.9115 528.352 98.1023 516.199 L 379.453 239.488 C 389.68 229.562 400.55 221.153 410.68 211.3 L 548.083 77.9545 C 566.804 60.0971 582.96 38.8904 606.063 26.8856 z"/>
</g></svg></svg></svg>